# Blender v2.79 (sub 0) OBJ File: 'axe.blend'
# www.blender.org
mtllib axe.mtl
o axe
v 0.030523 0.002822 -0.017623
v 0.030523 1.245571 -0.017623
v 0.030523 0.002822 0.017623
v 0.030523 1.245571 0.017623
v 0.041935 1.104264 -0.039061
v 0.041935 1.221457 -0.039061
v 0.041935 1.104264 0.039061
v 0.041935 1.221457 0.039061
v 0.056771 1.204744 -0.028818
v 0.056771 1.118284 -0.028818
v 0.056771 1.118284 0.028818
v 0.056771 1.204744 0.028818
v 0.257657 0.967879 0.016139
v 0.257657 0.967879 -0.016139
v 0.257657 1.295838 -0.016139
v 0.257657 1.295838 0.016139
v -0.000000 0.002822 -0.035245
v -0.000000 1.245571 -0.035245
v -0.030523 0.002822 -0.017623
v -0.030523 1.245571 -0.017623
v -0.030523 0.002822 0.017623
v -0.030523 1.245571 0.017623
v 0.000000 0.002822 0.035245
v 0.000000 1.245571 0.035245
v -0.041935 1.104264 -0.039061
v -0.041935 1.221457 -0.039061
v -0.041935 1.104264 0.039061
v -0.041935 1.221457 0.039061
v -0.000000 1.221457 -0.039061
v -0.000000 1.104264 -0.039061
v 0.000000 1.221457 0.039061
v 0.000000 1.104264 0.039061
v -0.000000 0.002822 -0.000000
v -0.056771 1.204744 -0.028818
v -0.056771 1.118284 -0.028818
v -0.056771 1.118284 0.028818
v 0.000000 1.261160 0.000000
v -0.056771 1.204744 0.028818
v 0.090689 1.220319 0.023378
v 0.090689 1.101043 -0.023378
v 0.090690 1.101043 0.023378
v 0.090689 1.220319 -0.023378
v 0.041935 1.104264 -0.000000
v 0.041935 1.221457 -0.000000
v 0.285576 1.341838 -0.000000
v 0.285576 0.921067 -0.000000
v 0.056771 1.204744 -0.000000
v 0.056771 1.118284 -0.000000
v 0.000000 1.221457 0.000000
v 0.000000 1.104264 0.000000
v -0.041935 1.104264 0.000000
v -0.041935 1.221457 0.000000
v 0.090690 1.239261 -0.000000
v -0.056771 1.204744 0.000000
v -0.056771 1.118284 0.000000
v 0.090690 1.080749 -0.000000
v 0.041935 1.187835 -0.039061
v 0.041935 1.187835 0.039061
v 0.257657 1.221120 0.016139
v 0.257657 1.221120 -0.016139
v 0.056771 1.179939 0.028818
v 0.056771 1.179939 -0.028818
v -0.000000 1.187835 -0.039061
v 0.000000 1.187835 0.039061
v -0.041935 1.187835 -0.039061
v -0.041935 1.187835 0.039061
v 0.090689 1.193784 -0.023378
v -0.056771 1.179939 0.028818
v -0.056771 1.179939 -0.028818
v 0.090690 1.193784 0.023378
v -0.056771 1.179939 0.000000
v 0.366192 1.221120 -0.000000
v 0.041935 1.143134 0.039061
v 0.257657 1.060627 0.016139
v 0.056771 1.146961 0.028818
v -0.000000 1.143134 -0.039061
v 0.000000 1.143134 0.039061
v -0.041935 1.143134 0.039061
v 0.090689 1.133324 -0.023378
v -0.056771 1.146961 0.028818
v -0.056771 1.146961 0.000000
v 0.041935 1.143134 -0.039061
v 0.257657 1.060627 -0.016139
v 0.056771 1.146961 -0.028818
v -0.041935 1.143134 -0.039061
v -0.056771 1.146961 -0.028818
v 0.090690 1.133324 0.023378
v 0.366192 1.060627 -0.000000
vt 0.170204 0.000052
vt 0.170204 0.999947
vt 0.141846 0.999947
vt 0.141844 0.000052
vt 0.113488 0.999947
vt 0.113485 0.000052
vt 0.085131 0.999948
vt 0.085125 0.000052
vt 0.170308 0.094742
vt 0.170308 0.066383
vt 0.194867 0.080562
vt 0.194867 0.052204
vt 0.219426 0.066383
vt 0.215383 0.052100
vt 0.185333 0.052100
vt 0.200358 0.026076
vt 0.230408 0.026076
vt 0.170308 0.026076
vt 0.000052 0.000052
vt 0.028410 0.000052
vt 0.028412 0.999948
vt 0.000052 0.999948
vt 0.056767 0.000052
vt 0.056771 0.999948
vt 0.194867 0.108921
vt 0.219426 0.094742
vt 0.215383 0.000052
vt 0.185333 0.000052
vt 0.865778 0.633997
vt 0.865778 0.713902
vt 0.766631 0.713902
vt 0.766631 0.633997
vt 0.865778 0.713902
vt 0.766631 0.713902
vt 0.731556 0.674184
vt 0.731556 0.615232
vt 0.766631 0.527762
vt 0.766631 0.435384
vt 0.731556 0.468703
vt 0.731556 0.536856
vt 0.766631 0.435384
vt 0.766631 0.435384
vt 0.731556 0.468703
vt 0.731556 0.468703
vt 0.766631 0.713902
vt 0.731556 0.674184
vt 0.731556 0.674184
vt 0.651363 0.756214
vt 0.651363 0.711199
vt 0.256605 0.890676
vt 0.190598 1.000000
vt 0.651363 0.379498
vt 0.651363 0.427729
vt 0.256605 0.111253
vt 0.190598 0.000000
vt 0.651363 0.504446
vt 0.651363 0.427729
vt 0.256605 0.111253
vt 0.256605 0.331676
vt 0.651363 0.648136
vt 0.651363 0.711199
vt 0.256605 0.890676
vt 0.256605 0.713103
vt 0.000000 0.713103
vt 0.865778 0.435384
vt 0.865778 0.435384
vt 0.766631 0.633997
vt 0.865778 0.713902
vt 0.865778 0.633997
vt 0.964925 0.633997
vt 0.964925 0.713902
vt 0.964925 0.713902
vt 1.000000 0.615232
vt 1.000000 0.674184
vt 0.964925 0.527762
vt 1.000000 0.536856
vt 1.000000 0.468703
vt 0.964925 0.435384
vt 0.964925 0.435384
vt 1.000000 0.468703
vt 1.000000 0.468703
vt 0.964925 0.435384
vt 1.000000 0.674184
vt 1.000000 0.674184
vt 0.964925 0.713902
vt 0.964925 0.633997
vt 1.000000 0.536856
vt 1.000000 0.536856
vt 0.865778 0.435384
vt 0.256605 0.713103
vt 0.000000 0.331676
vt 1.000000 0.615232
vt 1.000000 0.615232
vt 0.865778 0.527762
vt 0.731556 0.615232
vt 0.651363 0.648136
vt 0.731556 0.536856
vt 0.651363 0.504446
vt 0.964925 0.527762
vt 0.865778 0.527762
vt 0.256605 0.331676
vt 0.766631 0.527762
vn 0.0000 -0.6100 -0.7924
vn 0.0000 0.4783 -0.8782
vn 0.7605 0.4783 -0.4391
vn 0.6862 -0.6100 -0.3962
vn 0.7606 0.4783 0.4391
vn 0.6862 -0.6100 0.3962
vn 0.0000 0.4783 0.8782
vn 0.0000 -0.6100 0.7924
vn 0.0000 -1.0000 0.0000
vn 0.0000 1.0000 0.0000
vn -0.6862 -0.6100 -0.3962
vn -0.7605 0.4783 -0.4391
vn -0.6862 -0.6100 0.3962
vn -0.7605 0.4783 0.4391
vn 0.0000 0.0000 -1.0000
vn 0.0000 0.7071 -0.7071
vn 0.3779 0.6660 -0.6431
vn 0.2976 0.0000 -0.9547
vn 0.4100 0.9121 0.0000
vn 0.4284 0.4477 -0.7848
vn 0.3724 0.0000 -0.9280
vn 0.2976 0.0000 0.9547
vn 0.3589 -0.6677 0.6522
vn 0.3969 -0.4721 0.7871
vn 0.3724 0.0000 0.9280
vn 0.3696 -0.9292 0.0000
vn 0.3589 -0.6677 -0.6522
vn 0.3969 -0.4721 -0.7871
vn 0.0678 -0.9977 0.0000
vn 0.3779 0.6660 0.6431
vn 0.4284 0.4477 0.7848
vn 0.1324 0.9912 0.0000
vn -0.4975 0.8674 0.0000
vn -0.2188 0.4277 0.8770
vn -0.0201 0.2888 0.9572
vn 0.1512 0.9885 0.0000
vn -0.6161 -0.7876 0.0000
vn -0.2640 -0.4043 -0.8757
vn -0.1236 -0.3198 -0.9394
vn 0.0536 -0.9985 0.0000
vn 0.1010 0.0000 0.9949
vn -0.2640 -0.4043 0.8757
vn -0.1236 -0.3198 0.9394
vn 0.1103 -0.0179 0.9937
vn 0.1010 0.0000 -0.9949
vn -0.2188 0.4277 -0.8770
vn -0.0201 0.2888 -0.9572
vn 0.1094 0.0209 -0.9938
vn 0.9821 0.1882 0.0000
vn 0.0000 -0.7071 -0.7071
vn 0.0000 0.7071 0.7071
vn 0.0000 0.0000 1.0000
vn -0.2976 0.0000 -0.9547
vn -0.3779 0.6660 -0.6431
vn -0.4100 0.9121 0.0000
vn -0.8855 0.0000 -0.4646
vn -0.8835 0.2676 -0.3844
vn -0.2976 0.0000 0.9547
vn -0.8855 0.0000 0.4646
vn -0.8737 -0.3051 0.3787
vn -0.3589 -0.6677 0.6522
vn -0.3696 -0.9292 0.0000
vn -0.9184 -0.3957 0.0000
vn -0.8737 -0.3051 -0.3787
vn -0.3589 -0.6677 -0.6522
vn -0.9348 0.3551 0.0000
vn -0.8835 0.2676 0.3844
vn -0.3779 0.6660 0.6431
vn -1.0000 0.0000 0.0000
vn 0.0000 -0.7071 0.7071
vn 0.1094 0.0209 0.9938
vn 0.9861 -0.1658 0.0000
vn 0.1103 -0.0179 -0.9937
usemtl shaft
s 1
f 17/1/1 18/2/2 2/3/3 1/4/4
f 1/4/4 2/3/3 4/5/5 3/6/6
f 3/6/6 4/5/5 24/7/7 23/8/8
f 17/9/1 1/10/4 33/11/9
f 3/12/6 23/13/8 33/11/9
f 1/10/4 3/12/6 33/11/9
f 4/14/5 2/15/3 37/16/10
f 24/17/7 4/14/5 37/16/10
f 2/15/3 18/18/2 37/16/10
f 17/19/1 19/20/11 20/21/12 18/22/2
f 19/20/11 21/23/13 22/24/14 20/21/12
f 21/23/13 23/8/8 24/7/7 22/24/14
f 17/9/1 33/11/9 19/25/11
f 21/26/13 33/11/9 23/13/8
f 19/25/11 33/11/9 21/26/13
f 22/27/14 37/16/10 20/28/12
f 24/17/7 37/16/10 22/27/14
f 20/28/12 37/16/10 18/18/2
usemtl head
f 63/29/15 29/30/16 6/31/17 57/32/18
f 49/33/10 44/34/19 6/31/17 29/30/16
f 57/32/18 6/31/17 9/35/20 62/36/21
f 73/37/22 7/38/23 11/39/24 75/40/25
f 43/41/26 5/42/27 10/43/28 48/44/29
f 44/34/19 8/45/30 12/46/31 47/47/32
f 53/48/33 39/49/34 16/50/35 45/51/36
f 56/52/37 40/53/38 14/54/39 46/55/40
f 87/56/41 41/57/42 13/58/43 74/59/44
f 67/60/45 42/61/46 15/62/47 60/63/48
f 72/64/49 60/63/48 15/62/47 45/51/36
f 43/41/26 50/65/9 30/66/50 5/42/27
f 58/67/22 8/45/30 31/68/51 64/69/52
f 63/29/15 65/70/53 26/71/54 29/30/16
f 49/33/10 29/30/16 26/71/54 52/72/55
f 65/70/53 69/73/56 34/74/57 26/71/54
f 78/75/58 80/76/59 36/77/60 27/78/61
f 51/79/62 55/80/63 35/81/64 25/82/65
f 52/72/55 54/83/66 38/84/67 28/85/68
f 62/36/21 9/35/20 42/61/46 67/60/45
f 48/44/29 10/43/28 40/53/38 56/52/37
f 47/47/32 12/46/31 39/49/34 53/48/33
f 75/40/25 11/39/24 41/57/42 87/56/41
f 51/79/62 25/82/65 30/66/50 50/65/9
f 66/86/58 64/69/52 31/68/51 28/85/68
f 81/87/69 86/88/56 35/81/64 55/80/63
f 80/76/59 81/87/69 55/80/63 36/77/60
f 27/78/61 51/79/62 50/65/9 32/89/70
f 9/35/20 47/47/32 53/48/33 42/61/46
f 11/39/24 48/44/29 56/52/37 41/57/42
f 26/71/54 34/74/57 54/83/66 52/72/55
f 27/78/61 36/77/60 55/80/63 51/79/62
f 31/68/51 49/33/10 52/72/55 28/85/68
f 7/38/23 32/89/70 50/65/9 43/41/26
f 59/90/71 72/64/49 45/51/36 16/50/35
f 41/57/42 56/52/37 46/55/40 13/58/43
f 42/61/46 53/48/33 45/51/36 15/62/47
f 6/31/17 44/34/19 47/47/32 9/35/20
f 7/38/23 43/41/26 48/44/29 11/39/24
f 31/68/51 8/45/30 44/34/19 49/33/10
f 74/59/44 88/91/72 72/64/49 59/90/71
f 38/84/67 54/83/66 71/92/69 68/93/59
f 54/83/66 34/74/57 69/73/56 71/92/69
f 78/75/58 77/94/52 64/69/52 66/86/58
f 12/46/31 61/95/25 70/96/41 39/49/34
f 84/97/21 62/36/21 67/60/45 79/98/45
f 28/85/68 38/84/67 68/93/59 66/86/58
f 85/99/53 86/88/56 69/73/56 65/70/53
f 76/100/15 85/99/53 65/70/53 63/29/15
f 73/37/22 58/67/22 64/69/52 77/94/52
f 88/91/72 83/101/73 60/63/48 72/64/49
f 79/98/45 67/60/45 60/63/48 83/101/73
f 39/49/34 70/96/41 59/90/71 16/50/35
f 8/45/30 58/67/22 61/95/25 12/46/31
f 82/102/18 57/32/18 62/36/21 84/97/21
f 76/100/15 63/29/15 57/32/18 82/102/18
f 30/66/50 76/100/15 82/102/18 5/42/27
f 5/42/27 82/102/18 84/97/21 10/43/28
f 40/53/38 79/98/45 83/101/73 14/54/39
f 46/55/40 14/54/39 83/101/73 88/91/72
f 7/38/23 73/37/22 77/94/52 32/89/70
f 30/66/50 25/82/65 85/99/53 76/100/15
f 25/82/65 35/81/64 86/88/56 85/99/53
f 10/43/28 84/97/21 79/98/45 40/53/38
f 27/78/61 32/89/70 77/94/52 78/75/58
f 13/58/43 46/55/40 88/91/72 74/59/44
f 68/93/59 71/92/69 81/87/69 80/76/59
f 71/92/69 69/73/56 86/88/56 81/87/69
f 61/95/25 75/40/25 87/56/41 70/96/41
f 66/86/58 68/93/59 80/76/59 78/75/58
f 70/96/41 87/56/41 74/59/44 59/90/71
f 58/67/22 73/37/22 75/40/25 61/95/25
