# Blender v2.79 (sub 0) OBJ File: 'hoe.blend'
# www.blender.org
mtllib hoe.mtl
o hoe
v -0.046332 0.004283 0.026750
v -0.046332 2.963521 0.026750
v -0.046332 0.004283 -0.026750
v -0.046332 2.963521 -0.026750
v -0.063655 2.749029 0.059291
v -0.063655 2.926919 0.059291
v -0.063655 2.749029 -0.059291
v -0.063655 2.926919 -0.059291
v -0.086174 2.901550 0.043743
v -0.086174 2.770309 0.043743
v -0.086174 2.770309 -0.043743
v -0.086174 2.901550 -0.043743
v -0.553488 2.905163 -0.293380
v -0.553488 2.905163 0.293380
v -0.553488 2.940749 0.293380
v -0.553488 2.940749 -0.293380
v -0.820963 2.900662 -0.321707
v 0.000000 0.004283 0.053499
v 0.000000 2.963521 0.053499
v 0.046332 0.004283 0.026750
v 0.046332 2.963521 0.026750
v 0.046332 0.004283 -0.026750
v 0.046332 2.963521 -0.026750
v 0.000000 0.004283 -0.053499
v 0.000000 2.963521 -0.053499
v 0.063655 2.749029 0.059291
v 0.063655 2.926919 0.059291
v 0.063655 2.749029 -0.059291
v 0.063655 2.926919 -0.059291
v 0.000000 2.926919 0.059291
v 0.000000 2.749029 0.059291
v 0.000000 2.926919 -0.059291
v 0.000000 2.749029 -0.059291
v 0.000000 0.004283 0.000000
v 0.086174 2.901550 0.043743
v 0.086174 2.770309 0.043743
v 0.086174 2.770309 -0.043743
v 0.000000 2.987185 -0.000000
v 0.086174 2.901550 -0.043743
v -0.275004 2.898798 -0.235461
v -0.275004 2.860532 0.235461
v -0.820963 2.900662 0.321707
v -0.275004 2.860532 -0.235461
v -0.275004 2.898798 0.235461
v -0.820963 2.917483 0.321707
v -0.820963 2.917483 -0.321707
v -1.120770 2.875971 -0.321707
v -1.120770 2.875971 0.321707
vt 0.108503 0.000040
vt 0.108504 0.999960
vt 0.090427 0.999960
vt 0.090426 0.000040
vt 0.072349 0.999960
vt 0.072349 0.000040
vt 0.054272 0.999960
vt 0.054272 0.000040
vt 0.108584 0.060414
vt 0.108584 0.042337
vt 0.124239 0.051376
vt 0.124239 0.033298
vt 0.139895 0.042337
vt 0.137318 0.033219
vt 0.118162 0.033219
vt 0.127740 0.016629
vt 0.146895 0.016629
vt 0.108584 0.016629
vt 0.000040 0.000040
vt 0.018117 0.000040
vt 0.018118 0.999960
vt 0.000041 0.999960
vt 0.036195 0.000040
vt 0.036195 0.999960
vt 0.124239 0.069453
vt 0.139895 0.060414
vt 0.137318 0.000040
vt 0.118162 0.000040
vt 0.471828 1.000000
vt 0.471828 0.853317
vt 0.512870 0.853317
vt 0.512870 1.000000
vt 0.076604 0.928747
vt 0.076604 0.876265
vt 0.153208 0.876265
vt 0.153208 0.928747
vt 0.526767 0.874235
vt 0.526767 0.982453
vt 0.540664 0.853317
vt 0.540664 1.000000
vt 0.526767 0.982452
vt 0.526767 0.874235
vt 0.076604 0.877347
vt 0.000000 0.877347
vt 0.010044 0.857385
vt 0.066560 0.857385
vt 0.086648 0.857385
vt 0.143164 0.857385
vt 0.471359 0.155720
vt 0.775574 0.155720
vt 0.812990 0.384806
vt 0.433944 0.384806
vt 0.359930 0.696042
vt 0.055715 0.696042
vt 0.018299 0.464150
vt 0.397345 0.464150
vt 0.930374 0.174984
vt 0.954970 0.171824
vt 0.944496 0.406491
vt 0.921623 0.409430
vt 0.870615 0.698214
vt 0.846019 0.695055
vt 0.837268 0.460609
vt 0.860141 0.463548
vt 0.415644 0.244668
vt 0.000000 0.244668
vt 0.000000 0.000000
vt 0.415644 0.000000
vt 0.831289 0.605621
vt 0.415644 0.605621
vt 0.964773 0.626582
vt 0.953961 0.627971
vt 0.076604 0.929654
vt 0.000000 0.929654
vt 0.581705 0.853317
vt 0.581706 0.999999
vt 0.430787 1.000000
vt 0.430787 0.853317
vt 0.153208 0.981229
vt 0.076604 0.981229
vt 0.415644 0.982453
vt 0.415644 0.874235
vt 0.622747 0.853317
vt 0.637889 0.874234
vt 0.637890 0.982452
vt 0.622747 1.000000
vt 0.714494 0.853317
vt 0.704449 0.870865
vt 0.647934 0.870865
vt 0.637889 0.853317
vt 0.637889 1.000000
vt 0.647934 0.979082
vt 0.704449 0.979082
vt 0.714494 1.000000
vt 1.000000 0.870039
vt 0.915645 0.870039
vt 0.831289 0.859202
vt 0.236080 0.857385
vt 0.179564 0.857385
vt 0.869606 0.242069
vt 0.880417 0.243457
vt 0.595209 0.000000
vt 0.651724 0.000000
vt 0.915645 0.000000
vt 0.915645 0.010837
vt 1.000000 0.000000
vt 0.076604 0.981960
vt 0.000000 0.981960
vt 0.831289 0.853317
vt 0.415644 0.853317
vn -0.5000 0.0000 0.8660
vn -1.0000 0.0000 -0.0000
vn -0.5000 0.0000 -0.8660
vn 0.0000 -1.0000 0.0000
vn -0.4549 0.8906 0.0000
vn -0.2274 0.8906 -0.3939
vn -0.2274 0.8906 0.3939
vn 0.5000 0.0000 0.8660
vn 1.0000 0.0000 -0.0000
vn 0.5000 0.0000 -0.8660
vn 0.4549 0.8906 0.0000
vn 0.2274 0.8906 -0.3939
vn 0.2274 0.8906 0.3939
vn 0.0000 0.0000 1.0000
vn 0.0000 1.0000 0.0000
vn -0.5682 0.0000 0.8229
vn -0.5682 0.0000 -0.8229
vn -0.6868 -0.7268 0.0000
vn -0.7479 0.6639 0.0000
vn 0.1490 0.9888 0.0000
vn -0.1582 -0.9874 0.0000
vn 0.2036 0.0000 -0.9790
vn 0.2036 0.0000 0.9790
vn 0.0821 -0.9966 0.0000
vn -0.0867 0.9962 0.0000
vn 0.0168 -0.9999 0.0000
vn 0.1053 0.0000 -0.9944
vn 0.0000 0.0000 -1.0000
vn 0.5682 0.0000 0.8229
vn 0.5682 0.0000 -0.8229
vn 0.6868 -0.7268 0.0000
vn 0.7479 0.6639 0.0000
vn 0.7125 0.0000 0.7017
vn -0.4311 -0.9023 0.0000
vn 0.1053 0.0000 0.9944
vn -0.0146 0.9999 -0.0000
vn 0.7125 -0.0000 -0.7017
vn -0.1372 0.9905 0.0000
usemtl shaft
s off
f 18/1/1 19/2/1 2/3/1 1/4/1
f 1/4/2 2/3/2 4/5/2 3/6/2
f 3/6/3 4/5/3 25/7/3 24/8/3
f 18/9/4 1/10/4 34/11/4
f 3/12/4 24/13/4 34/11/4
f 1/10/4 3/12/4 34/11/4
f 4/14/5 2/15/5 38/16/5
f 25/17/6 4/14/6 38/16/6
f 2/15/7 19/18/7 38/16/7
f 18/19/8 20/20/8 21/21/8 19/22/8
f 20/20/9 22/23/9 23/24/9 21/21/9
f 22/23/10 24/8/10 25/7/10 23/24/10
f 18/9/4 34/11/4 20/25/4
f 22/26/4 34/11/4 24/13/4
f 20/25/4 34/11/4 22/26/4
f 23/27/11 38/16/11 21/28/11
f 25/17/12 38/16/12 23/27/12
f 21/28/13 38/16/13 19/18/13
usemtl head
f 31/29/14 30/30/14 6/31/14 5/32/14
f 32/33/15 8/34/15 6/35/15 30/36/15
f 5/32/16 6/31/16 9/37/16 10/38/16
f 8/39/17 7/40/17 11/41/17 12/42/17
f 7/43/18 5/44/18 10/45/18 11/46/18
f 6/35/19 8/34/19 12/47/19 9/48/19
f 44/49/20 40/50/20 16/51/20 15/52/20
f 43/53/21 41/54/21 14/55/21 13/56/21
f 40/57/22 43/58/22 13/59/22 16/60/22
f 41/61/23 44/62/23 15/63/23 14/64/23
f 17/65/24 42/66/24 48/67/24 47/68/24
f 15/52/25 16/51/25 46/69/25 45/70/25
f 13/56/26 14/55/26 42/66/26 17/65/26
f 16/60/27 13/59/27 17/71/27 46/72/27
f 7/43/4 33/73/4 31/74/4 5/44/4
f 7/40/28 8/39/28 32/75/28 33/76/28
f 31/29/14 26/77/14 27/78/14 30/30/14
f 32/33/15 30/36/15 27/79/15 29/80/15
f 26/77/29 36/81/29 35/82/29 27/78/29
f 29/83/30 39/84/30 37/85/30 28/86/30
f 28/87/31 37/88/31 36/89/31 26/90/31
f 27/91/32 35/92/32 39/93/32 29/94/32
f 46/72/28 17/71/28 47/95/28
f 10/96/33 9/97/33 44/62/33 41/61/33
f 11/98/34 10/99/34 41/54/34 43/53/34
f 14/64/35 15/63/35 45/100/35 42/101/35
f 9/102/36 12/103/36 40/50/36 44/49/36
f 42/101/14 45/100/14 48/104/14
f 12/105/37 11/106/37 43/58/37 40/57/37
f 28/107/4 26/108/4 31/74/4 33/73/4
f 28/86/28 33/76/28 32/75/28 29/83/28
f 39/93/9 35/92/9 36/89/9 37/88/9
f 45/70/38 46/69/38 47/109/38 48/110/38
