# Blender v2.79 (sub 0) OBJ File: 'saber.blend'
# www.blender.org
mtllib saber.mtl
o sword_Sword
v -0.050880 0.010206 -0.011237
v -0.105712 1.367888 -0.011237
v -0.029234 0.010206 -0.048432
v -0.040713 1.354148 -0.025234
v 0.014057 0.010206 -0.048432
v -0.000594 1.380705 -0.025234
v 0.035703 0.010206 -0.011237
v 0.019732 1.506677 -0.011237
v 0.014057 0.010206 0.025958
v -0.000594 1.380705 0.002760
v -0.029234 0.010206 0.025958
v -0.040713 1.354148 0.002760
v -0.121242 1.641805 -0.011237
v -0.007589 0.001078 -0.011237
v -0.048620 0.449630 -0.011237
v -0.017122 0.449630 -0.025234
v 0.031091 0.449630 -0.025234
v 0.069772 0.449630 -0.011237
v 0.031091 0.449630 0.002760
v -0.017122 0.449630 0.002760
v -0.046269 0.421422 -0.041403
v 0.031091 0.421422 -0.041403
v 0.077112 0.383660 -0.011237
v 0.031091 0.421422 0.018930
v -0.046269 0.421422 0.018930
v -0.112361 0.398429 -0.011237
v -0.040215 0.083707 -0.064245
v 0.025037 0.083707 -0.064245
v 0.057663 0.083707 -0.011237
v 0.025037 0.083707 0.041771
v -0.040215 0.083707 0.041771
v -0.072840 0.083707 -0.011237
v -0.026491 0.390268 -0.038460
v 0.011314 0.390268 -0.038460
v 0.030217 0.390268 -0.011237
v 0.011314 0.390268 0.015987
v -0.026491 0.390268 0.015987
v -0.045394 0.390268 -0.011237
v -0.026491 0.106477 -0.038460
v 0.011314 0.106477 -0.038460
v 0.030217 0.106477 -0.011237
v 0.011314 0.106477 0.015987
v -0.026491 0.106477 0.015987
v -0.045394 0.106477 -0.011237
v -0.040838 0.048453 -0.067587
v 0.025661 0.048453 -0.067587
v 0.058910 0.048453 -0.011237
v 0.025661 0.048453 0.045113
v -0.040838 0.048453 0.045113
v -0.074087 0.048453 -0.011237
v -0.189907 0.459516 -0.011237
v -0.189907 0.473790 -0.011237
v 0.174730 0.380344 -0.011237
v 0.174730 0.369307 -0.011237
v -0.074058 1.216889 -0.011237
v -0.036444 1.225106 -0.025234
v 0.017148 1.260831 -0.025234
v 0.051004 1.358529 -0.011237
v 0.017148 1.260831 0.002760
v -0.036444 1.225106 0.002760
v -0.025769 1.029172 -0.025234
v 0.028383 1.029172 -0.025234
v 0.060928 1.029172 -0.011237
v 0.028383 1.029172 0.002760
v -0.025769 1.029172 0.002760
v -0.053803 1.029172 -0.011237
vt 0.894007 0.435864
vt 0.788015 0.871729
vt 0.644007 0.739694
vt 0.697004 0.369847
vt 0.355993 0.739694
vt 0.302997 0.369847
vt 0.211985 0.871729
vt 0.105993 0.435864
vt 0.355993 0.739694
vt 0.302997 0.369847
vt 0.644007 0.739694
vt 0.697004 0.369847
vt 0.500000 1.000000
vt 0.723502 0.184924
vt 0.947004 0.217932
vt 0.276498 0.184924
vt 0.052996 0.217932
vt 0.276498 0.184924
vt 0.723502 0.184924
vt 1.000000 0.000000
vt 0.750000 0.000000
vt 0.250000 0.000000
vt 0.000000 0.000000
vt 0.250000 0.000000
vt 0.750000 0.000000
vt 0.393921 0.988264
vt 0.287843 0.988264
vt 0.000000 1.000000
vt 0.393921 0.518659
vt 0.393921 0.988264
vt 0.606079 0.988264
vt 0.606079 0.518659
vt 1.000000 1.000000
vt 1.000000 0.762356
vt 0.606079 0.518659
vt 0.606079 0.988264
vt 0.393921 0.518659
vt 0.787333 0.135861
vt 0.603680 0.000000
vt 0.551840 0.000000
vt 0.448160 0.000000
vt 0.551840 0.000000
vt 0.448160 0.000000
vt 0.212667 0.135861
vt 0.396320 0.000000
vt 0.000000 0.762356
vt 0.712157 0.988264
vt 1.000000 0.000000
vt 1.000000 1.000000
vt 0.750000 1.000000
vt 0.750000 0.000000
vt 0.250000 1.000000
vt 0.250000 0.000000
vt 0.000000 1.000000
vt 0.000000 0.000000
vt 0.250000 1.000000
vt 0.250000 0.000000
vt 0.750000 1.000000
vt 0.750000 0.000000
vt 0.825511 0.086601
vt 0.662755 0.086601
vt 0.500000 0.000000
vt 0.337245 0.086601
vt 0.174490 0.086601
vt 0.337245 0.086601
vt 0.662755 0.086601
vt 0.990626 0.783962
vt 0.745313 0.783962
vt 0.642130 1.000000
vt 0.784260 1.000000
vt 0.009374 0.783962
vt 0.254687 0.783962
vt 0.357870 1.000000
vt 0.215741 1.000000
vt 0.254687 0.783962
vt 0.357870 1.000000
vt 0.750000 0.449483
vt 1.000000 0.449483
vt 0.250000 0.449483
vt 0.000000 0.449483
vt 0.250000 0.449483
vt 0.750000 0.449483
vt 0.745313 0.783962
vt 0.642130 1.000000
vn -0.9951 -0.0987 0.0000
vn -0.9961 -0.0880 0.0000
vn -0.1195 -0.0037 -0.9928
vn -0.1636 -0.0167 -0.9864
vn 0.1294 0.0439 -0.9906
vn 0.1873 0.0103 -0.9822
vn 0.8039 0.5948 0.0000
vn 0.9876 0.1570 0.0000
vn 0.1294 0.0439 0.9906
vn 0.1873 0.0103 0.9822
vn -0.1195 -0.0037 0.9928
vn -0.1636 -0.0167 0.9864
vn -0.3928 0.9196 0.0000
vn -0.2059 -0.0091 0.9785
vn -0.9989 -0.0458 0.0000
vn 0.1900 0.0046 0.9817
vn 0.9997 0.0237 0.0000
vn 0.1900 0.0046 -0.9817
vn -0.2059 -0.0091 -0.9785
vn -0.0996 0.9950 0.0000
vn -0.1076 0.3041 -0.9465
vn 0.1758 0.2375 -0.9554
vn 0.7565 0.6540 0.0000
vn 0.1758 0.2375 0.9554
vn -0.1076 0.3041 0.9465
vn 0.6167 0.7872 0.0000
vn 0.1483 0.0125 0.9888
vn -0.1430 -0.0566 0.9881
vn -0.0970 0.9953 0.0000
vn -0.3798 0.9250 0.0000
vn -0.1430 -0.0566 -0.9881
vn 0.1483 0.0125 -0.9888
vn -0.5498 -0.8353 0.0000
vn -0.7932 -0.6089 0.0000
vn -0.2843 -0.1868 0.9403
vn 0.2707 -0.1893 -0.9438
vn -0.2843 -0.1868 -0.9403
vn 0.2707 -0.1893 0.9438
vn -0.0431 -0.9991 0.0000
vn 0.7668 -0.6418 0.0000
vn 0.7906 0.6123 0.0000
vn -0.8569 0.5155 0.0000
vn -0.4122 0.4927 -0.7664
vn 0.4122 0.4927 -0.7664
vn 0.8569 0.5155 0.0000
vn 0.4122 0.4927 0.7664
vn -0.4122 0.4927 0.7664
vn -0.6546 -0.7559 0.0000
vn -0.3250 -0.7521 -0.5732
vn 0.0000 -1.0000 0.0000
vn 0.3250 -0.7521 -0.5732
vn 0.6546 -0.7559 0.0000
vn 0.3250 -0.7521 0.5732
vn -0.3250 -0.7521 0.5732
vn -0.9108 0.4129 0.0000
vn -0.4475 0.4247 0.7870
vn 0.9108 0.4129 0.0000
vn 0.4475 0.4247 -0.7870
vn 0.4475 0.4247 0.7870
vn -0.4803 -0.2047 0.8529
vn -0.9752 -0.2212 0.0000
vn 0.4803 -0.2047 0.8529
vn 0.9752 -0.2212 0.0000
vn 0.4803 -0.2047 -0.8529
vn -0.4803 -0.2047 -0.8529
vn -0.4475 0.4247 -0.7870
usemtl blade
s 1
f 55/1/1 2/2/2 4/3/3 56/4/4
f 56/4/4 4/3/3 6/5/5 57/6/6
f 57/6/6 6/5/5 8/7/7 58/8/8
f 58/8/8 8/7/7 10/9/9 59/10/10
f 59/10/10 10/9/9 12/11/11 60/12/12
f 60/12/12 12/11/11 2/2/2 55/1/1
f 4/3/3 2/2/2 13/13/13
f 2/2/2 12/11/11 13/13/13
f 12/11/11 10/9/9 13/13/13
f 10/9/9 8/7/7 13/13/13
f 8/7/7 6/5/5 13/13/13
f 6/5/5 4/3/3 13/13/13
f 65/14/14 60/12/12 55/1/1 66/15/15
f 64/16/16 59/10/10 60/12/12 65/14/14
f 63/17/17 58/8/8 59/10/10 64/16/16
f 62/18/18 57/6/6 58/8/8 63/17/17
f 61/19/19 56/4/4 57/6/6 62/18/18
f 66/15/15 55/1/1 56/4/4 61/19/19
f 15/20/20 66/15/15 61/19/19 16/21/21
f 16/21/21 61/19/19 62/18/18 17/22/22
f 17/22/22 62/18/18 63/17/17 18/23/23
f 18/23/23 63/17/17 64/16/16 19/24/24
f 19/24/24 64/16/16 65/14/14 20/25/25
f 20/25/25 65/14/14 66/15/15 15/20/20
usemtl guard
f 17/26/22 18/27/23 53/28/26
f 24/29/27 19/30/24 20/31/25 25/32/28
f 25/32/28 20/31/25 52/33/29 51/34/30
f 21/35/31 16/36/21 17/26/22 22/37/32
f 18/27/23 19/30/24 53/28/26
f 25/32/28 26/38/33 38/39/34 37/40/35
f 21/35/31 22/37/32 34/41/36 33/42/37
f 24/29/27 25/32/28 37/40/35 36/43/38
f 22/37/32 23/44/39 35/45/40 34/41/36
f 23/44/39 24/29/27 36/43/38 35/45/40
f 26/38/33 21/35/31 33/42/37 38/39/34
f 51/34/30 52/33/29 16/36/21 21/35/31
f 54/46/41 53/28/26 19/30/24 24/29/27
f 26/38/33 25/32/28 51/34/30
f 20/31/25 15/47/20 52/33/29
f 23/44/39 22/37/32 54/46/41
f 24/29/27 23/44/39 54/46/41
f 15/47/20 16/36/21 52/33/29
f 21/35/31 26/38/33 51/34/30
f 22/37/32 17/26/22 53/28/26 54/46/41
usemtl grip
f 44/48/42 38/49/34 33/50/37 39/51/43
f 39/51/43 33/50/37 34/52/36 40/53/44
f 40/53/44 34/52/36 35/54/40 41/55/45
f 41/55/45 35/54/40 36/56/38 42/57/46
f 42/57/46 36/56/38 37/58/35 43/59/47
f 43/59/47 37/58/35 38/49/34 44/48/42
usemtl pommel
f 1/60/48 3/61/49 14/62/50
f 3/61/49 5/63/51 14/62/50
f 5/63/51 7/64/52 14/62/50
f 7/64/52 9/65/53 14/62/50
f 9/65/53 11/66/54 14/62/50
f 11/66/54 1/60/48 14/62/50
f 32/67/55 31/68/56 43/69/47 44/70/42
f 29/71/57 28/72/58 40/73/44 41/74/45
f 30/75/59 29/71/57 41/74/45 42/76/46
f 49/77/60 31/68/56 32/67/55 50/78/61
f 48/79/62 30/75/59 31/68/56 49/77/60
f 47/80/63 29/71/57 30/75/59 48/79/62
f 46/81/64 28/72/58 29/71/57 47/80/63
f 45/82/65 27/83/66 28/72/58 46/81/64
f 50/78/61 32/67/55 27/83/66 45/82/65
f 28/72/58 27/83/66 39/84/43 40/73/44
f 31/68/56 30/75/59 42/76/46 43/69/47
f 27/83/66 32/67/55 44/70/42 39/84/43
f 1/60/48 50/78/61 45/82/65 3/61/49
f 3/61/49 45/82/65 46/81/64 5/63/51
f 5/63/51 46/81/64 47/80/63 7/64/52
f 7/64/52 47/80/63 48/79/62 9/65/53
f 9/65/53 48/79/62 49/77/60 11/66/54
f 11/66/54 49/77/60 50/78/61 1/60/48
