# Blender v2.79 (sub 0) OBJ File: 'spear.blend'
# www.blender.org
mtllib spear.mtl
o Cylinder
v -0.030845 0.002851 0.017808
v -0.030845 1.972948 0.017808
v -0.030845 0.002851 -0.017808
v -0.030845 1.972948 -0.017808
v -0.042378 1.653687 0.039473
v -0.042378 2.006145 0.039473
v -0.042378 1.653687 -0.039473
v -0.042378 2.006145 -0.039473
v -0.057370 1.989256 0.029122
v -0.057370 1.667855 0.029122
v -0.057370 1.667855 -0.029122
v -0.057370 1.989256 -0.029122
v -0.028480 2.238290 -0.019528
v -0.057370 1.989256 0.000000
v -0.028480 2.238290 0.019528
v -0.042378 1.653687 0.000000
v -0.057370 1.667855 0.000000
v -0.023514 2.117499 0.024638
v -0.023514 2.117499 -0.024638
v -0.063015 2.100610 0.016239
v -0.063015 2.100610 -0.016239
v -0.019544 2.419247 0.009447
v -0.096489 2.100610 0.000000
v -0.019544 2.419247 -0.009447
v -0.056256 2.235024 0.014407
v -0.056256 2.235024 -0.014407
v -0.078102 2.221401 0.000000
v -0.045837 2.402358 0.006970
v -0.045837 2.402358 -0.006970
v -0.042378 2.446857 0.000000
v -0.057370 2.402358 0.000000
v 0.030845 0.002851 0.017808
v 0.030845 1.972948 0.017808
v 0.030845 0.002851 -0.017808
v 0.030845 1.972948 -0.017808
v 0.042378 1.653687 0.039473
v 0.042378 2.006145 0.039473
v 0.042378 1.653687 -0.039473
v 0.042378 2.006145 -0.039473
v 0.057370 1.989256 0.029122
v 0.057370 1.667855 0.029122
v 0.057370 1.667855 -0.029122
v 0.057370 1.989256 -0.029122
v 0.000000 0.002851 0.035617
v 0.000000 1.972948 0.035617
v 0.000000 0.002851 -0.035617
v 0.000000 1.972948 -0.035617
v 0.000000 2.006145 0.039473
v 0.000000 1.653687 0.039473
v 0.000000 2.006145 -0.039473
v 0.000000 1.653687 -0.039473
v 0.000000 0.002851 0.000000
v 0.000000 1.988703 -0.000000
v 0.028480 2.238290 -0.019528
v 0.057370 1.989256 0.000000
v 0.028480 2.238290 0.019528
v 0.042378 1.653687 0.000000
v 0.057370 1.667855 0.000000
v 0.000000 1.653687 0.000000
v 0.023514 2.117499 0.024638
v 0.023514 2.117499 -0.024638
v 0.063015 2.100610 0.016239
v 0.063015 2.100610 -0.016239
v 0.000000 2.117499 0.026123
v 0.000000 2.117499 -0.026123
v 0.019544 2.419247 0.009447
v 0.096489 2.100610 0.000000
v 0.019544 2.419247 -0.009447
v 0.056256 2.235024 0.014407
v 0.056256 2.235024 -0.014407
v 0.000000 2.238290 0.019528
v 0.000000 2.238290 -0.019528
v 0.078102 2.221401 0.000000
v 0.045837 2.402358 0.006970
v 0.045837 2.402358 -0.006970
v 0.000000 2.419247 0.009447
v 0.000000 2.419247 -0.009447
v 0.042378 2.446857 0.000000
v 0.057370 2.402358 0.000000
v 0.000000 2.525642 0.000000
vt 0.722048 0.000000
vt 0.722048 1.000000
vt 0.433230 1.000000
vt 0.433229 0.000000
vt 0.288820 1.000000
vt 0.288818 0.000000
vt 0.000001 1.000000
vt 0.000000 0.000000
vt 0.972172 0.072315
vt 0.722048 0.063276
vt 0.972172 0.054236
vt 0.722048 0.045197
vt 0.972172 0.036158
vt 1.000000 0.009039
vt 1.000000 0.027118
vt 0.722048 0.018079
vt 0.763225 0.000000
vt 0.763225 0.036158
vt 0.433229 0.000000
vt 0.433230 1.000000
vt 0.288818 0.000000
vt 0.288820 1.000000
vt 0.722048 0.063276
vt 0.722048 0.045197
vt 1.000000 0.009039
vt 1.000000 0.027118
vt 0.303282 0.000081
vt 0.317713 0.402770
vt 0.186241 0.402689
vt 0.171810 0.000000
vt 0.635427 0.597230
vt 0.503954 0.597311
vt 0.558679 0.468662
vt 0.632466 0.468756
vt 0.133207 0.384333
vt 0.120047 0.017127
vt 0.489523 1.000000
vt 0.437761 0.982873
vt 0.450920 0.615667
vt 0.866367 0.045250
vt 0.866367 0.090499
vt 0.819091 0.078633
vt 0.819091 0.045250
vt 0.727259 0.127651
vt 0.635427 0.127651
vt 0.676052 0.000000
vt 0.727259 0.000000
vt 1.000000 0.045250
vt 1.000000 0.090499
vt 0.620996 0.999919
vt 0.819090 0.127651
vt 0.778465 0.000000
vt 0.430710 0.487247
vt 0.866367 0.000000
vt 1.000000 0.000000
vt 0.819091 0.011866
vt 0.635427 0.496088
vt 0.727259 0.496088
vt 0.819091 0.496088
vt 0.000000 0.514209
vt 0.112996 0.512753
vt 0.138438 0.666507
vt 0.061988 0.652250
vt 0.240965 0.531338
vt 0.314752 0.531244
vt 0.315983 0.669867
vt 0.227628 0.669813
vt 0.456151 0.333493
vt 0.545341 0.330187
vt 0.633697 0.330133
vt 0.574795 0.122480
vt 0.635427 0.122443
vt 0.379702 0.347750
vt 0.451430 0.140965
vt 0.491134 0.141595
vt 0.173421 0.858405
vt 0.133716 0.859035
vt 0.257081 0.877519
vt 0.317713 0.485792
vt 0.316748 1.000000
vt 0.182050 0.909906
vt 0.317713 0.877557
vt 0.499763 0.090094
vt 0.634461 0.000000
vt 0.171810 0.000000
vt 0.186241 0.402689
vt 0.558679 0.468662
vt 0.503954 0.597311
vt 0.120047 0.017127
vt 0.133207 0.384333
vt 0.450920 0.615667
vt 0.437761 0.982873
vt 0.489523 1.000000
vt 0.866367 0.045250
vt 0.819091 0.045250
vt 0.819091 0.078633
vt 0.866367 0.090499
vt 0.727259 0.127651
vt 0.727259 0.000000
vt 0.676052 0.000000
vt 0.635427 0.127651
vt 0.819090 0.127651
vt 0.778465 0.000000
vt 0.430710 0.487247
vt 0.866367 0.000000
vt 0.819091 0.011866
vt 0.635427 0.496088
vt 0.727259 0.496088
vt 0.819091 0.496088
vt 0.000000 0.514209
vt 0.061988 0.652250
vt 0.138438 0.666507
vt 0.112996 0.512753
vt 0.240965 0.531338
vt 0.227628 0.669813
vt 0.545341 0.330187
vt 0.456151 0.333493
vt 0.574795 0.122480
vt 0.491134 0.141595
vt 0.451430 0.140965
vt 0.379702 0.347750
vt 0.133716 0.859035
vt 0.173421 0.858405
vt 0.257081 0.877519
vt 0.317713 0.485792
vt 0.182050 0.909906
vt 0.499763 0.090094
vn 0.0000 -0.6100 0.7924
vn 0.0000 0.4783 0.8782
vn -0.7605 0.4783 0.4391
vn -0.6862 -0.6100 0.3962
vn -0.7605 0.4783 -0.4391
vn -0.6862 -0.6100 -0.3962
vn 0.0000 0.4783 -0.8782
vn 0.0000 -0.6100 -0.7924
vn 0.0000 -1.0000 0.0000
vn 0.0000 1.0000 0.0000
vn 0.6862 -0.6100 0.3962
vn 0.7605 0.4783 0.4391
vn 0.6862 -0.6100 -0.3962
vn 0.7605 0.4783 -0.4391
vn 0.0000 -0.7071 0.7071
vn 0.0000 0.0638 0.9980
vn -0.2402 0.0838 0.9671
vn -0.3589 -0.6677 0.6522
vn 0.0000 0.0638 -0.9980
vn -0.2402 0.0838 -0.9671
vn -0.1432 0.0792 -0.9865
vn 0.0000 0.0878 -0.9961
vn -0.7743 -0.0099 0.6326
vn -0.8737 -0.3051 0.3787
vn -0.3589 -0.6677 -0.6522
vn -0.8737 -0.3051 -0.3787
vn -0.7743 -0.0099 -0.6326
vn -0.3696 -0.9292 0.0000
vn -0.9184 -0.3957 0.0000
vn -0.9975 -0.0701 0.0000
vn -0.5129 0.0277 0.8580
vn -0.9989 -0.0472 0.0000
vn 0.0000 -0.7071 -0.7071
vn -0.5129 0.0277 -0.8580
vn -0.3673 0.0534 0.9285
vn -0.9935 0.1138 0.0000
vn -0.1432 0.0792 0.9865
vn 0.0000 0.0878 0.9961
vn 0.0000 0.0517 0.9987
vn -0.1004 0.0481 0.9938
vn -0.3673 0.0534 -0.9285
vn -0.1004 0.0481 -0.9938
vn 0.0000 0.0517 -0.9987
vn -0.1486 0.1040 -0.9834
vn 0.0000 0.0852 -0.9963
vn -0.9700 0.2430 0.0000
vn -0.3232 0.1065 -0.9403
vn -0.3232 0.1065 0.9403
vn -0.1486 0.1040 0.9834
vn -0.8343 0.5512 0.0000
vn 0.0000 0.0852 0.9963
vn 0.3589 -0.6677 0.6522
vn 0.2402 0.0838 0.9671
vn 0.1432 0.0792 -0.9865
vn 0.2402 0.0838 -0.9671
vn 0.8737 -0.3051 0.3787
vn 0.7743 -0.0099 0.6326
vn 0.7743 -0.0099 -0.6326
vn 0.8737 -0.3051 -0.3787
vn 0.3589 -0.6677 -0.6522
vn 0.3696 -0.9292 0.0000
vn 0.9184 -0.3957 0.0000
vn 0.9975 -0.0701 0.0000
vn 0.9989 -0.0472 0.0000
vn 0.5129 0.0277 0.8580
vn 0.5129 0.0277 -0.8580
vn 0.9935 0.1138 0.0000
vn 0.3673 0.0534 0.9285
vn 0.1432 0.0792 0.9865
vn 0.1004 0.0481 0.9938
vn 0.1004 0.0481 -0.9938
vn 0.3673 0.0534 -0.9285
vn 0.1486 0.1040 -0.9834
vn 0.3232 0.1065 -0.9403
vn 0.9700 0.2430 0.0000
vn 0.3232 0.1065 0.9403
vn 0.1486 0.1040 0.9834
vn 0.8343 0.5512 0.0000
usemtl shaft
s 1
f 44/1/1 45/2/2 2/3/3 1/4/4
f 1/4/4 2/3/3 4/5/5 3/6/6
f 3/6/6 4/5/5 47/7/7 46/8/8
f 44/9/1 1/10/4 52/11/9
f 3/12/6 46/13/8 52/11/9
f 1/10/4 3/12/6 52/11/9
f 4/14/5 2/15/3 53/16/10
f 47/17/7 4/14/5 53/16/10
f 2/15/3 45/18/2 53/16/10
f 44/1/1 32/19/11 33/20/12 45/2/2
f 32/19/11 34/21/13 35/22/14 33/20/12
f 34/21/13 46/8/8 47/7/7 35/22/14
f 44/9/1 52/11/9 32/23/11
f 34/24/13 52/11/9 46/13/8
f 32/23/11 52/11/9 34/24/13
f 35/25/14 53/16/10 33/26/12
f 47/17/7 53/16/10 35/25/14
f 33/26/12 53/16/10 45/18/2
usemtl head
f 49/27/15 48/28/16 6/29/17 5/30/18
f 50/31/19 8/32/20 19/33/21 65/34/22
f 5/30/18 6/29/17 9/35/23 10/36/24
f 8/32/20 7/37/25 11/38/26 12/39/27
f 16/40/28 5/41/18 10/42/24 17/43/29
f 14/44/30 9/45/23 20/46/31 23/47/32
f 16/40/28 59/48/9 49/49/15 5/41/18
f 7/37/25 8/32/20 50/31/19 51/50/33
f 12/51/27 14/44/30 23/47/32 21/52/34
f 8/32/20 12/39/27 21/53/34 19/33/21
f 7/54/25 51/55/33 59/48/9 16/40/28
f 7/54/25 16/40/28 17/43/29 11/56/26
f 10/57/24 9/45/23 14/44/30 17/58/29
f 11/59/26 17/58/29 14/44/30 12/51/27
f 23/60/32 20/61/31 25/62/35 27/63/36
f 18/64/37 64/65/38 71/66/39 15/67/40
f 20/61/31 18/64/37 15/67/40 25/62/35
f 19/33/21 21/53/34 26/68/41 13/69/42
f 9/35/23 6/29/17 18/64/37 20/61/31
f 6/29/17 48/28/16 64/65/38 18/64/37
f 72/70/43 13/69/42 24/71/44 77/72/45
f 26/68/41 27/73/36 31/74/46 29/75/47
f 27/63/36 25/62/35 28/76/48 31/77/46
f 25/62/35 15/67/40 22/78/49 28/76/48
f 21/53/34 23/79/32 27/73/36 26/68/41
f 65/34/22 19/33/21 13/69/42 72/70/43
f 80/80/10 30/81/50 22/78/49 76/82/51
f 30/83/50 24/71/44 29/75/47 31/74/46
f 22/78/49 30/81/50 31/77/46 28/76/48
f 77/72/45 24/71/44 30/83/50 80/84/10
f 15/67/40 71/66/39 76/82/51 22/78/49
f 13/69/42 26/68/41 29/75/47 24/71/44
f 49/27/15 36/85/52 37/86/53 48/28/16
f 50/31/19 65/34/22 61/87/54 39/88/55
f 36/85/52 41/89/56 40/90/57 37/86/53
f 39/88/55 43/91/58 42/92/59 38/93/60
f 57/94/61 58/95/62 41/96/56 36/97/52
f 55/98/63 67/99/64 62/100/65 40/101/57
f 57/94/61 36/97/52 49/49/15 59/48/9
f 38/93/60 51/50/33 50/31/19 39/88/55
f 43/102/58 63/103/66 67/99/64 55/98/63
f 39/88/55 61/87/54 63/104/66 43/91/58
f 38/105/60 57/94/61 59/48/9 51/55/33
f 38/105/60 42/106/59 58/95/62 57/94/61
f 41/107/56 58/108/62 55/98/63 40/101/57
f 42/109/59 43/102/58 55/98/63 58/108/62
f 67/110/64 73/111/67 69/112/68 62/113/65
f 60/114/69 56/115/70 71/66/39 64/65/38
f 62/113/65 69/112/68 56/115/70 60/114/69
f 61/87/54 54/116/71 70/117/72 63/104/66
f 40/90/57 62/113/65 60/114/69 37/86/53
f 37/86/53 60/114/69 64/65/38 48/28/16
f 72/70/43 77/72/45 68/118/73 54/116/71
f 70/117/72 75/119/74 79/120/75 73/121/67
f 73/111/67 79/122/75 74/123/76 69/112/68
f 69/112/68 74/123/76 66/124/77 56/115/70
f 63/104/66 70/117/72 73/121/67 67/125/64
f 65/34/22 72/70/43 54/116/71 61/87/54
f 80/80/10 76/82/51 66/124/77 78/126/78
f 78/127/78 79/120/75 75/119/74 68/118/73
f 66/124/77 74/123/76 79/122/75 78/126/78
f 77/72/45 80/84/10 78/127/78 68/118/73
f 56/115/70 66/124/77 76/82/51 71/66/39
f 54/116/71 68/118/73 75/119/74 70/117/72
l 25 26
l 69 70
